<svg xmlns="http://www.w3.org/2000/svg" width="480" height="430" viewBox="0 0 480 430">
  <defs>
    <linearGradient id="bg" x1="0%" y1="0%" x2="100%" y2="100%">
      <stop offset="0%" style="stop-color:#0d1117"/>
      <stop offset="100%" style="stop-color:#161b22"/>
    </linearGradient>
    <linearGradient id="accent" x1="0%" y1="0%" x2="100%" y2="0%">
      <stop offset="0%" style="stop-color:#58a6ff"/>
      <stop offset="100%" style="stop-color:#bc8cff"/>
    </linearGradient>
    <filter id="glow">
      <feGaussianBlur stdDeviation="2" result="blur"/>
      <feMerge><feMergeNode in="blur"/><feMergeNode in="SourceGraphic"/></feMerge>
    </filter>
  </defs>

  <!-- Background -->
  <rect width="480" height="430" rx="12" fill="url(#bg)" stroke="#30363d" stroke-width="1"/>

  <!-- Header line -->
  <rect x="0" y="54" width="480" height="1" fill="#30363d"/>

  <!-- Title -->
  <text x="30" y="36" fill="#58a6ff" font-size="16" font-weight="bold" font-family="'SF Mono','Fira Code',monospace" filter="url(#glow)">FLEX</text>
  <text x="78" y="36" fill="#7d8590" font-size="13" font-family="'SF Mono','Fira Code',monospace">cloud • All Time</text>

  <!-- User + Rank -->
  <text x="30" y="82" fill="#d29922" font-size="15" font-weight="bold" font-family="'SF Mono','Fira Code',monospace">LarsenCundric</text>
  <text x="153.5" y="82" fill="#bc8cff" font-size="13" font-style="italic" font-family="'SF Mono','Fira Code',monospace">  🤖 Commit Machine</text>

  <!-- Level bar -->
  <text x="30" y="105" fill="#7d8590" font-size="11" font-family="'SF Mono','Fira Code',monospace">LVL 10 • Legendary</text>
  <rect x="160" y="96" width="120" height="8" rx="4" fill="#30363d"/>
  <rect x="160" y="96" width="120" height="8" rx="4" fill="url(#accent)"/>

  <!-- Separator -->
  <rect x="30" y="116" width="420" height="1" fill="#30363d"/>

  <!-- Stats grid -->
  <text x="30" y="142" fill="#7d8590" font-size="10" font-family="'SF Mono','Fira Code',monospace">COMMITS</text>
  <text x="30" y="160" fill="#e6edf3" font-size="18" font-weight="bold" font-family="'SF Mono','Fira Code',monospace">1.5K</text>

  <text x="140" y="142" fill="#7d8590" font-size="10" font-family="'SF Mono','Fira Code',monospace">ADDED</text>
  <text x="140" y="160" fill="#3fb950" font-size="18" font-weight="bold" font-family="'SF Mono','Fira Code',monospace">+394.7K</text>

  <text x="250" y="142" fill="#7d8590" font-size="10" font-family="'SF Mono','Fira Code',monospace">REMOVED</text>
  <text x="250" y="160" fill="#f85149" font-size="18" font-weight="bold" font-family="'SF Mono','Fira Code',monospace">-312.6K</text>

  <text x="370" y="142" fill="#7d8590" font-size="10" font-family="'SF Mono','Fira Code',monospace">FILES</text>
  <text x="370" y="160" fill="#e6edf3" font-size="18" font-weight="bold" font-family="'SF Mono','Fira Code',monospace">2.3K</text>

  <!-- Row 2 -->
  <text x="30" y="195" fill="#7d8590" font-size="10" font-family="'SF Mono','Fira Code',monospace">PEAK HOUR</text>
  <text x="30" y="213" fill="#e6edf3" font-size="14" font-weight="bold" font-family="'SF Mono','Fira Code',monospace">12 PM</text>

  <text x="140" y="195" fill="#7d8590" font-size="10" font-family="'SF Mono','Fira Code',monospace">STREAK</text>
  <text x="140" y="213" fill="#d29922" font-size="14" font-weight="bold" font-family="'SF Mono','Fira Code',monospace">6d 🔥</text>

  <text x="250" y="195" fill="#7d8590" font-size="10" font-family="'SF Mono','Fira Code',monospace">BEST STREAK</text>
  <text x="250" y="213" fill="#e6edf3" font-size="14" font-weight="bold" font-family="'SF Mono','Fira Code',monospace">28d</text>

  <text x="370" y="195" fill="#7d8590" font-size="10" font-family="'SF Mono','Fira Code',monospace">NET LINES</text>
  <text x="370" y="213" fill="#3fb950" font-size="14" font-weight="bold" font-family="'SF Mono','Fira Code',monospace">+82.2K</text>

  <!-- Highlights -->
  <text x="30" y="250" fill="#d29922" font-size="11" font-style="italic" font-family="'SF Mono','Fira Code',monospace">&gt; 27 commits on Jul 30 — absolute machine</text>
  <text x="30" y="268" fill="#d29922" font-size="11" font-style="italic" font-family="'SF Mono','Fira Code',monospace">&gt; +82.2K net lines — entire features in one go</text>
  <text x="30" y="286" fill="#d29922" font-size="11" font-style="italic" font-family="'SF Mono','Fira Code',monospace">&gt; 1.5K commits — this repo is basically yours</text>

  <!-- Language bars -->
  <rect x="30" y="290" width="264.6" height="8" rx="2" fill="#58a6ff"/><rect x="296.6" y="290" width="50.4" height="8" rx="2" fill="#3fb950"/><rect x="349" y="290" width="29.400000000000002" height="8" rx="2" fill="#d29922"/><rect x="380.4" y="290" width="16.8" height="8" rx="2" fill="#bc8cff"/><rect x="399.2" y="290" width="8.4" height="8" rx="2" fill="#f85149"/><rect x="409.59999999999997" y="290" width="8.4" height="8" rx="2" fill="#79c0ff"/>
  <text x="162.3" y="316" fill="#7d8590" font-size="10" text-anchor="middle" font-family="'SF Mono','Fira Code',monospace">Python 63%</text><text x="321.8" y="316" fill="#7d8590" font-size="10" text-anchor="middle" font-family="'SF Mono','Fira Code',monospace">React TSX 12%</text>

  <!-- Activity sparkline -->
  <text x="30" y="340" fill="#7d8590" font-size="10" font-family="'SF Mono','Fira Code',monospace">ACTIVITY BY HOUR</text>
  <rect x="30" y="334.4186046511628" width="16.5" height="5.5813953488372094" rx="1" fill="#58a6ff" opacity="0.6"/><rect x="47.5" y="329.14728682170545" width="16.5" height="10.852713178294573" rx="1" fill="#58a6ff" opacity="0.6"/><rect x="65" y="320.7751937984496" width="16.5" height="19.22480620155039" rx="1" fill="#58a6ff" opacity="0.6"/><rect x="82.5" y="317.05426356589146" width="16.5" height="22.94573643410853" rx="1" fill="#58a6ff" opacity="0.6"/><rect x="100" y="323.25581395348837" width="16.5" height="16.74418604651163" rx="1" fill="#58a6ff" opacity="0.6"/><rect x="117.5" y="313.0232558139535" width="16.5" height="26.97674418604651" rx="1" fill="#58a6ff" opacity="0.6"/><rect x="135" y="321.3953488372093" width="16.5" height="18.6046511627907" rx="1" fill="#58a6ff" opacity="0.6"/><rect x="152.5" y="316.74418604651163" width="16.5" height="23.255813953488374" rx="1" fill="#58a6ff" opacity="0.6"/><rect x="170" y="325.1162790697674" width="16.5" height="14.883720930232558" rx="1" fill="#58a6ff" opacity="0.6"/><rect x="187.5" y="313.0232558139535" width="16.5" height="26.97674418604651" rx="1" fill="#58a6ff" opacity="0.6"/><rect x="205" y="314.5736434108527" width="16.5" height="25.42635658914729" rx="1" fill="#58a6ff" opacity="0.6"/><rect x="222.5" y="305.27131782945736" width="16.5" height="34.72868217054263" rx="1" fill="#58a6ff" opacity="0.6"/><rect x="240" y="300" width="16.5" height="40" rx="1" fill="#58a6ff" opacity="0.6"/><rect x="257.5" y="319.84496124031006" width="16.5" height="20.155038759689923" rx="1" fill="#58a6ff" opacity="0.6"/><rect x="275" y="319.84496124031006" width="16.5" height="20.155038759689923" rx="1" fill="#58a6ff" opacity="0.6"/><rect x="292.5" y="321.3953488372093" width="16.5" height="18.6046511627907" rx="1" fill="#58a6ff" opacity="0.6"/><rect x="310" y="316.74418604651163" width="16.5" height="23.255813953488374" rx="1" fill="#58a6ff" opacity="0.6"/><rect x="327.5" y="320.7751937984496" width="16.5" height="19.22480620155039" rx="1" fill="#58a6ff" opacity="0.6"/><rect x="345" y="317.3643410852713" width="16.5" height="22.635658914728683" rx="1" fill="#58a6ff" opacity="0.6"/><rect x="362.5" y="322.015503875969" width="16.5" height="17.984496124031008" rx="1" fill="#58a6ff" opacity="0.6"/><rect x="380" y="325.4263565891473" width="16.5" height="14.573643410852712" rx="1" fill="#58a6ff" opacity="0.6"/><rect x="397.5" y="336.5891472868217" width="16.5" height="3.4108527131782944" rx="1" fill="#58a6ff" opacity="0.6"/><rect x="415" y="330.38759689922483" width="16.5" height="9.612403100775195" rx="1" fill="#58a6ff" opacity="0.6"/><rect x="432.5" y="333.1782945736434" width="16.5" height="6.821705426356589" rx="1" fill="#58a6ff" opacity="0.6"/>

  <!-- Footer -->
  <text x="450" y="418" fill="#7d8590" font-size="9" text-anchor="end" font-family="'SF Mono','Fira Code',monospace">generated by flex</text>
</svg>